<svg width="150" height="150" viewBox="0 0 150 150" fill="none" xmlns="http://www.w3.org/2000/svg">
  <rect x="0.5" y="0.5" width="149" height="149" rx="3.5" fill="#F2F2F2"/>
  <path d="M92.1429 105C92.1429 100.58 90.3367 96.3405 87.1218 93.2149C83.9069 90.0893 79.5466 88.3333 75 88.3333C70.4534 88.3333 66.0931 90.0893 62.8782 93.2149C59.6633 96.3405 57.8571 100.58 57.8571 105H51C51 98.8116 53.5287 92.8767 58.0296 88.5009C62.5304 84.125 68.6348 81.6667 75 81.6667C81.3652 81.6667 87.4696 84.125 91.9704 88.5009C96.4713 92.8767 99 98.8116 99 105H92.1429ZM57.8571 61.6667C57.8571 57.2464 59.6633 53.0072 62.8782 49.8816C66.0931 46.756 70.4534 45 75 45C79.5466 45 83.9069 46.756 87.1218 49.8816C90.3367 53.0072 92.1429 57.2464 92.1429 61.6667C92.1429 66.0869 90.3367 70.3261 87.1218 73.4517C83.9069 76.5773 79.5466 78.3333 75 78.3333C70.4534 78.3333 66.0931 76.5773 62.8782 73.4517C59.6633 70.3261 57.8571 66.0869 57.8571 61.6667ZM64.7143 61.6667C64.7143 64.3188 65.7979 66.8623 67.7268 68.7377C69.6558 70.6131 72.2721 71.6667 75 71.6667C77.7279 71.6667 80.3442 70.6131 82.2732 68.7377C84.2021 66.8623 85.2857 64.3188 85.2857 61.6667C85.2857 59.0145 84.2021 56.471 82.2732 54.5956C80.3442 52.7203 77.7279 51.6667 75 51.6667C72.2721 51.6667 69.6558 52.7203 67.7268 54.5956C65.7979 56.471 64.7143 59.0145 64.7143 61.6667Z" fill="#DDDBDA"/>
  <rect x="0.5" y="0.5" width="149" height="149" rx="3.5" stroke="#DDDBDA"/>
</svg>
